Coordinates
version=1
nRows=10
nColumns=22
inDegrees=yes

Units are S.I. units (second, meters, Newtons, ...)
If the header above contains a line with 'inDegrees', this indicates whether rotational values are in degrees (yes) or radians (no).

endheader
time	pelvis_tilt	pelvis_list	pelvis_rotation	pelvis_tx	pelvis_ty	pelvis_tz	hip_flexion_r	hip_adduction_r	hip_rotation_r	knee_angle_r	ankle_angle_r	subtalar_angle_r	hip_flexion_l	hip_adduction_l	hip_rotation_l	knee_angle_l	ankle_angle_l	subtalar_angle_l	lumbar_extension	lumbar_bending	lumbar_rotation
      4.03000000	      6.00566655	     -2.95831494	     -0.98240783	      0.90432353	      0.92943161	      0.10189086	      3.86221169	      7.66084677	     -2.93407627	    -13.25341877	     -2.24354378	     -3.37279799	      8.44798082	     -8.76726146	     -8.71192942	    -59.16448016	      5.71178903	      0.69630343	     -7.11729412	     -1.67107326	      0.10662610
      4.04000000	      5.94034666	     -2.80112349	     -1.26585926	      0.90823923	      0.92992117	      0.10257665	      3.59394411	      7.53980597	     -2.60144509	    -13.14930877	     -2.09191137	     -3.39416568	      8.64781167	     -8.67040702	     -8.97038773	    -58.18840738	      6.83634089	      0.51579102	     -7.05172396	     -1.83034465	      0.46489687
      4.05000000	      5.86948652	     -2.66529661	     -1.54050522	      0.91203882	      0.93032373	      0.10319376	      3.35500632	      7.43286241	     -2.30728718	    -13.07349882	     -1.92524643	     -3.40588993	      8.79832043	     -8.59612207	     -9.24064372	    -57.07806434	      7.99409702	      0.35658481	     -6.98202360	     -1.95289043	      0.77440676
      4.06000000	      5.80523419	     -2.54842947	     -1.80318284	      0.91572829	      0.93067245	      0.10375765	      3.11378858	      7.34094687	     -2.01565996	    -12.98932596	     -1.75828544	     -3.41496233	      8.88632371	     -8.53366368	     -9.49932355	    -55.83964792	      9.15528741	      0.16052491	     -6.92228790	     -2.04920966	      1.05824090
      4.07000000	      5.74128992	     -2.46035824	     -2.03314125	      0.91933711	      0.93095778	      0.10425095	      2.87350621	      7.27383065	     -1.76131692	    -12.89405574	     -1.59291046	     -3.42044134	      8.92366793	     -8.50192598	     -9.74757100	    -54.49048189	     10.31095182	     -0.06020513	     -6.86264741	     -2.10647949	      1.29144820
      4.08000000	      5.68346760	     -2.39743298	     -2.21453185	      0.92289393	      0.93121056	      0.10466296	      2.61021008	      7.22882988	     -1.53864461	    -12.75522391	     -1.46343550	     -3.42655870	      8.90418569	     -8.49121792	     -9.96530150	    -53.03209325	     11.43437204	     -0.34839152	     -6.80656589	     -2.12995399	      1.46218226
      4.09000000	      5.58886569	     -2.38986656	     -2.35841625	      0.92638441	      0.93131971	      0.10503961	      2.40993895	      7.23856337	     -1.41311866	    -12.65338032	     -1.28801961	     -3.42321723	      8.88737971	     -8.56001749	    -10.19327701	    -51.51088758	     12.54547427	     -0.54440341	     -6.70719037	     -2.08665807	      1.58013660
      4.10000000	      5.49719600	     -2.40910539	     -2.46371967	      0.92982521	      0.93140172	      0.10537317	      2.18848271	      7.27564360	     -1.30774775	    -12.50766115	     -1.15052933	     -3.41893627	      8.81892518	     -8.65577472	    -10.41084326	    -49.90082650	     13.59747206	     -0.79549352	     -6.60764668	     -2.01430218	      1.65645268
      4.11000000	      5.39675925	     -2.45707572	     -2.54510120	      0.93316286	      0.93142546	      0.10567405	      1.97786629	      7.34169185	     -1.21946963	    -12.34967810	     -1.02938829	     -3.40718069	      8.72027853	     -8.78342688	    -10.63420603	    -48.22368256	     14.58404693	     -1.06843640	     -6.50212463	     -1.91069258	      1.70008406
      4.12000000	      5.27746818	     -2.53389595	     -2.62048304	      0.93635559	      0.93137045	      0.10595086	      1.80640744	      7.43648749	     -1.13937806	    -12.21222150	     -0.90195443	     -3.38663477	      8.60567933	     -8.94612920	    -10.88566305	    -46.49073037	     15.50135381	     -1.32029978	     -6.38576834	     -1.77326437	      1.73335966
